<svg id="Layer_1" data-name="Layer 1" xmlns="http://www.w3.org/2000/svg" viewBox="0 0 71.69 61.92"><defs><style>.cls-1{fill:#174a97;}</style></defs><title>icono</title><path class="cls-1" d="M191.43,75.8a8.27,8.27,0,1,1-8.27-8.27A8.27,8.27,0,0,1,191.43,75.8Z" transform="translate(-147.32 -44.05)"/><path class="cls-1" d="M206.34,106H160.85V104.3c0-3.4-2.35-17.06-3.93-25.71l-2.85,2.18-6.75-8,36.41-28.7L219,72.21l-7.12,8-1.66-1.3c-1.58,8.6-3.91,22.11-3.9,25.41V106Zm-42.23-3.35h39c0.61-7.07,4.21-26.19,4.37-27.08L208,72.84l3.53,2.76,2.67-3-30.43-24.3L152.1,73.24l2.47,2.93,4.64-3.55,0.5,2.67C159.88,76.19,163.49,95.48,164.11,102.63Z" transform="translate(-147.32 -44.05)"/></svg>