<svg id="Capa_1" data-name="Capa 1" xmlns="http://www.w3.org/2000/svg" viewBox="0 0 100.63 123.34"><defs><style>.cls-1{fill:#252b4b;}.cls-1,.cls-2,.cls-4{opacity:0.9;}.cls-2,.cls-6,.cls-7{fill:#26519b;}.cls-3{fill:#fff;}.cls-4{fill:#2c3e6e;}.cls-5{fill:#c10b19;}.cls-7{stroke:#26519b;stroke-miterlimit:10;}.cls-8{fill:#868489;opacity:0.8;}</style></defs><title>logo</title><polygon class="cls-1" points="32.75 65 49.62 68.51 49.62 4.46 32.75 12.54 32.75 65"/><polygon class="cls-2" points="32.75 65 49.62 68.51 49.62 4.46 32.75 12.54 32.75 65"/><polygon class="cls-3" points="35.62 16.11 38.71 14.82 38.71 19.97 35.62 21.06 35.62 16.11"/><polygon class="cls-3" points="35.62 26.01 38.71 25.11 38.71 30.25 35.62 30.96 35.62 26.01"/><polygon class="cls-3" points="35.62 35.9 38.71 35.39 38.71 40.53 35.62 40.85 35.62 35.9"/><polygon class="cls-3" points="35.62 45.8 38.71 45.67 38.71 50.81 35.62 50.81 35.62 45.8"/><polygon class="cls-3" points="35.62 55.7 38.71 55.95 38.71 61.1 35.62 60.65 35.62 55.7"/><polygon class="cls-3" points="42.05 56.23 45.67 56.54 45.67 62.11 42.05 61.58 42.05 56.23"/><polygon class="cls-3" points="42.05 45.53 45.67 45.38 45.67 50.96 42.05 50.81 42.05 45.53"/><polygon class="cls-3" points="42.05 24.14 45.67 23.08 45.67 28.65 42.05 29.48 42.05 24.14"/><polygon class="cls-3" points="42.05 34.83 45.67 34.23 45.67 39.81 42.05 40.18 42.05 34.83"/><polygon class="cls-3" points="42.05 13.43 45.67 11.92 45.67 17.5 42.05 18.78 42.05 13.43"/><polygon class="cls-1" points="66.37 65 49.51 68.51 49.51 4.46 66.37 12.54 66.37 65"/><polygon class="cls-2" points="66.37 65 49.51 68.51 49.51 4.46 66.37 12.54 66.37 65"/><polygon class="cls-3" points="63.51 16.11 60.42 14.82 60.42 19.97 63.51 21.06 63.51 16.11"/><polygon class="cls-3" points="63.51 26.01 60.42 25.11 60.42 30.25 63.51 30.96 63.51 26.01"/><polygon class="cls-3" points="63.51 35.9 60.42 35.39 60.42 40.53 63.51 40.85 63.51 35.9"/><polygon class="cls-3" points="63.51 45.8 60.42 45.67 60.42 50.81 63.51 50.81 63.51 45.8"/><polygon class="cls-3" points="63.51 55.7 60.42 55.95 60.42 61.1 63.51 60.65 63.51 55.7"/><polygon class="cls-3" points="57.08 56.23 53.45 56.54 53.45 62.11 57.08 61.58 57.08 56.23"/><polygon class="cls-3" points="57.08 45.53 53.45 45.38 53.45 50.96 57.08 50.81 57.08 45.53"/><polygon class="cls-3" points="57.08 24.14 53.45 23.08 53.45 28.65 57.08 29.48 57.08 24.14"/><polygon class="cls-3" points="57.08 34.83 53.45 34.23 53.45 39.81 57.08 40.18 57.08 34.83"/><polygon class="cls-3" points="57.08 13.43 53.45 11.92 53.45 17.5 57.08 18.78 57.08 13.43"/><polygon class="cls-4" points="49.39 72.06 62.48 74.79 62.48 25.03 49.39 31.31 49.39 72.06"/><polygon class="cls-2" points="49.39 72.06 62.48 74.79 62.48 25.03 49.39 31.31 49.39 72.06"/><polygon class="cls-3" points="51.61 34.09 54.01 33.09 54.01 37.08 51.61 37.93 51.61 34.09"/><polygon class="cls-3" points="51.61 41.77 54.01 41.08 54.01 45.07 51.61 45.62 51.61 41.77"/><polygon class="cls-3" points="51.61 49.46 54.01 49.06 54.01 53.05 51.61 53.3 51.61 49.46"/><polygon class="cls-3" points="51.61 57.15 54.01 57.05 54.01 61.04 51.61 61.04 51.61 57.15"/><polygon class="cls-3" points="51.61 64.83 54.01 65.03 54.01 69.03 51.61 68.67 51.61 64.83"/><polygon class="cls-3" points="56.6 65.25 59.42 65.48 59.42 69.82 56.6 69.41 56.6 65.25"/><polygon class="cls-3" points="56.6 56.94 59.42 56.82 59.42 61.15 56.6 61.04 56.6 56.94"/><polygon class="cls-3" points="56.6 40.32 59.42 39.5 59.42 43.83 56.6 44.47 56.6 40.32"/><polygon class="cls-3" points="56.6 48.63 59.42 48.16 59.42 52.49 56.6 52.78 56.6 48.63"/><polygon class="cls-3" points="56.6 32.01 59.42 30.83 59.42 35.16 56.6 36.16 56.6 32.01"/><polygon class="cls-4" points="75.5 72.06 62.4 74.79 62.4 25.03 75.5 31.31 75.5 72.06"/><polygon class="cls-2" points="75.5 72.06 62.4 74.79 62.4 25.03 75.5 31.31 75.5 72.06"/><polygon class="cls-3" points="73.27 34.09 70.87 33.09 70.87 37.08 73.27 37.93 73.27 34.09"/><polygon class="cls-3" points="73.27 41.77 70.87 41.08 70.87 45.07 73.27 45.62 73.27 41.77"/><polygon class="cls-3" points="73.27 49.46 70.87 49.06 70.87 53.05 73.27 53.3 73.27 49.46"/><polygon class="cls-3" points="73.27 57.15 70.87 57.05 70.87 61.04 73.27 61.04 73.27 57.15"/><polygon class="cls-3" points="73.27 64.83 70.87 65.03 70.87 69.03 73.27 68.67 73.27 64.83"/><polygon class="cls-3" points="68.28 65.25 65.47 65.48 65.47 69.82 68.28 69.41 68.28 65.25"/><polygon class="cls-3" points="68.28 56.94 65.47 56.82 65.47 61.15 68.28 61.04 68.28 56.94"/><polygon class="cls-3" points="68.28 40.32 65.47 39.5 65.47 43.83 68.28 44.47 68.28 40.32"/><polygon class="cls-3" points="68.28 48.63 65.47 48.16 65.47 52.49 68.28 52.78 68.28 48.63"/><polygon class="cls-3" points="68.28 32.01 65.47 30.83 65.47 35.16 68.28 36.16 68.28 32.01"/><path class="cls-5" d="M849,35.63A38.65,38.65,0,0,1,867.14,3a39.47,39.47,0,0,0-24.56,36.41c0,21.79,17.91,39.46,40,39.46a40.17,40.17,0,0,0,25.45-9A40.7,40.7,0,0,1,889,74.55C866.87,74.55,849,57.13,849,35.63Z" transform="translate(-823.23 -3)"/><path class="cls-6" d="M881.49,80.79c-22.83,0-41.33-18.26-41.33-40.79a40.43,40.43,0,0,1,12.76-29.47A40.34,40.34,0,1,0,898,77.42,41.65,41.65,0,0,1,881.49,80.79Z" transform="translate(-823.23 -3)"/><path class="cls-5" d="M863.11,106.94v4.89a1.72,1.72,0,0,0,.13.84,0.62,0.62,0,0,0,.49.21v0.24H861v-0.24a0.62,0.62,0,0,0,.51-0.24,1.73,1.73,0,0,0,.11-0.81v-3.61a1.73,1.73,0,0,0-.13-0.84,0.62,0.62,0,0,0-.49-0.21v-0.24h2.16Zm-0.77-3a0.76,0.76,0,0,1,.6.3,1.1,1.1,0,0,1,.25.72,1.08,1.08,0,0,1-.25.72,0.76,0.76,0,0,1-.6.3,0.75,0.75,0,0,1-.6-0.3,1.18,1.18,0,0,1,0-1.44A0.75,0.75,0,0,1,862.34,104Z" transform="translate(-823.23 -3)"/><path class="cls-5" d="M866.34,106.94v0.8a3.21,3.21,0,0,1,.76-0.75,1.42,1.42,0,0,1,.78-0.24,1.12,1.12,0,0,1,.83.33,1.67,1.67,0,0,1,.44.83,7.65,7.65,0,0,1,.09,1.45v2.4a2.16,2.16,0,0,0,.11.89,0.59,0.59,0,0,0,.45.22v0.24h-2.6v-0.24a0.54,0.54,0,0,0,.42-0.29,2.25,2.25,0,0,0,.09-0.82V109a5.43,5.43,0,0,0,0-1,0.6,0.6,0,0,0-.17-0.31,0.38,0.38,0,0,0-.26-0.11,1.16,1.16,0,0,0-.88.81v3.31a2.17,2.17,0,0,0,.11.88,0.52,0.52,0,0,0,.4.23v0.24h-2.6v-0.24a0.61,0.61,0,0,0,.46-0.25,2.21,2.21,0,0,0,.09-0.86v-3.49a2.09,2.09,0,0,0-.11-0.87,0.61,0.61,0,0,0-.45-0.22v-0.24h2.1Z" transform="translate(-823.23 -3)"/><path class="cls-5" d="M872.63,106.94v0.81a3.13,3.13,0,0,1,.78-0.78,1.48,1.48,0,0,1,.79-0.22,1.26,1.26,0,0,1,.83.28,1.76,1.76,0,0,1,.52.85,3.49,3.49,0,0,1,.84-0.86,1.52,1.52,0,0,1,.84-0.26,1.2,1.2,0,0,1,.85.29,1.56,1.56,0,0,1,.44.75,6,6,0,0,1,.12,1.44v2.53a2.14,2.14,0,0,0,.11.89,0.61,0.61,0,0,0,.45.22v0.24h-2.66v-0.24a0.57,0.57,0,0,0,.46-0.29,2.08,2.08,0,0,0,.1-0.82v-2.65a5.93,5.93,0,0,0-.05-1.05,0.65,0.65,0,0,0-.17-0.33,0.4,0.4,0,0,0-.28-0.11,0.74,0.74,0,0,0-.48.21,2.53,2.53,0,0,0-.49.62v3.32a2.23,2.23,0,0,0,.09.84,0.54,0.54,0,0,0,.48.27v0.24h-2.66v-0.24a0.53,0.53,0,0,0,.34-0.13,0.57,0.57,0,0,0,.16-0.28,3.62,3.62,0,0,0,0-.7v-2.65a5.77,5.77,0,0,0-.06-1.05,0.66,0.66,0,0,0-.18-0.33,0.4,0.4,0,0,0-.28-0.12,0.64,0.64,0,0,0-.4.14,2.52,2.52,0,0,0-.55.7v3.32a2.22,2.22,0,0,0,.11.86,0.53,0.53,0,0,0,.45.25v0.24h-2.65v-0.24a0.61,0.61,0,0,0,.46-0.25,2.19,2.19,0,0,0,.09-0.86v-3.49a2.09,2.09,0,0,0-.11-0.87,0.61,0.61,0,0,0-.45-0.22v-0.24h2.1Z" transform="translate(-823.23 -3)"/><path class="cls-5" d="M882.31,106.76a2.09,2.09,0,0,1,1.25.42,2.56,2.56,0,0,1,.88,1.18,4.57,4.57,0,0,1,.3,1.68,4.06,4.06,0,0,1-.56,2.2,2.08,2.08,0,0,1-1.85,1.07,2,2,0,0,1-1.79-1,4.1,4.1,0,0,1-.63-2.26,4.16,4.16,0,0,1,.64-2.32A2,2,0,0,1,882.31,106.76Zm0,0.47a0.6,0.6,0,0,0-.48.25,2,2,0,0,0-.26,1q-0.06.75-.06,2.08a10.65,10.65,0,0,0,.08,1.32,1.42,1.42,0,0,0,.26.71,0.58,0.58,0,0,0,.45.24,0.56,0.56,0,0,0,.41-0.17,1.19,1.19,0,0,0,.29-0.63,18.29,18.29,0,0,0,.11-2.54A7.49,7.49,0,0,0,883,108a1.23,1.23,0,0,0-.31-0.61A0.51,0.51,0,0,0,882.33,107.23Z" transform="translate(-823.23 -3)"/><path class="cls-5" d="M887.51,104.16v3.4a1.83,1.83,0,0,1,1.42-.81,1.57,1.57,0,0,1,1,.37,2.42,2.42,0,0,1,.73,1.06,4.39,4.39,0,0,1,.26,1.58,4.83,4.83,0,0,1-.34,1.84,2.93,2.93,0,0,1-.9,1.26,2,2,0,0,1-1.28.43,1.67,1.67,0,0,1-.74-0.16,2.1,2.1,0,0,1-.64-0.51l-0.85.67H886v-7.85a3.22,3.22,0,0,0,0-.66,0.51,0.51,0,0,0-.17-0.27,0.74,0.74,0,0,0-.4-0.1v-0.24h2.13Zm0,4v2.75a10.22,10.22,0,0,0,0,1.07,1.19,1.19,0,0,0,.26.63,0.71,0.71,0,0,0,1,0,1.59,1.59,0,0,0,.34-0.76,10.33,10.33,0,0,0,.13-2,4.39,4.39,0,0,0-.3-1.95,0.65,0.65,0,0,0-.58-0.38A1.18,1.18,0,0,0,887.51,108.15Z" transform="translate(-823.23 -3)"/><path class="cls-5" d="M893.79,106.94v4.89a1.72,1.72,0,0,0,.13.84,0.62,0.62,0,0,0,.49.21v0.24h-2.78v-0.24a0.62,0.62,0,0,0,.51-0.24,1.73,1.73,0,0,0,.11-0.81v-3.61a1.73,1.73,0,0,0-.13-0.84,0.62,0.62,0,0,0-.49-0.21v-0.24h2.16ZM893,104a0.76,0.76,0,0,1,.6.3,1.1,1.1,0,0,1,.25.72,1.08,1.08,0,0,1-.25.72,0.76,0.76,0,0,1-.6.3,0.75,0.75,0,0,1-.6-0.3,1.18,1.18,0,0,1,0-1.44A0.75,0.75,0,0,1,893,104Z" transform="translate(-823.23 -3)"/><path class="cls-5" d="M896.92,104.16v7.67a1.73,1.73,0,0,0,.13.84,0.62,0.62,0,0,0,.5.21v0.24h-2.78v-0.24a0.62,0.62,0,0,0,.51-0.24,1.73,1.73,0,0,0,.11-0.81v-6.39a1.71,1.71,0,0,0-.13-0.83,0.62,0.62,0,0,0-.49-0.21v-0.24h2.16Z" transform="translate(-823.23 -3)"/><path class="cls-5" d="M900,106.94v4.89a1.72,1.72,0,0,0,.13.84,0.62,0.62,0,0,0,.49.21v0.24h-2.78v-0.24a0.62,0.62,0,0,0,.51-0.24,1.73,1.73,0,0,0,.11-0.81v-3.61a1.73,1.73,0,0,0-.13-0.84,0.62,0.62,0,0,0-.49-0.21v-0.24H900Zm-0.77-3a0.76,0.76,0,0,1,.6.3,1.1,1.1,0,0,1,.25.72,1.08,1.08,0,0,1-.25.72,0.76,0.76,0,0,1-.6.3,0.75,0.75,0,0,1-.6-0.3,1.18,1.18,0,0,1,0-1.44A0.75,0.75,0,0,1,899.28,104Z" transform="translate(-823.23 -3)"/><path class="cls-5" d="M904,112.21a2.55,2.55,0,0,1-1.69,1,0.92,0.92,0,0,1-.73-0.35,1.3,1.3,0,0,1-.29-0.87,1.85,1.85,0,0,1,.51-1.27,9.32,9.32,0,0,1,2.21-1.5v-0.62a3.6,3.6,0,0,0-.06-0.88,0.69,0.69,0,0,0-.24-0.32,0.64,0.64,0,0,0-.4-0.14,0.89,0.89,0,0,0-.59.19,0.35,0.35,0,0,0-.14.28,0.62,0.62,0,0,0,.15.34,0.93,0.93,0,0,1,.21.55,0.8,0.8,0,0,1-.2.55,0.67,0.67,0,0,1-.53.23,0.76,0.76,0,0,1-.58-0.25,0.84,0.84,0,0,1-.23-0.59,1.52,1.52,0,0,1,.31-0.91,2,2,0,0,1,.87-0.66,3,3,0,0,1,1.17-.23,1.7,1.7,0,0,1,1.16.37,1.72,1.72,0,0,1,.55.81,6.26,6.26,0,0,1,.08,1.27v2.4a2.94,2.94,0,0,0,0,.53,0.33,0.33,0,0,0,.08.16,0.18,0.18,0,0,0,.13.05,0.4,0.4,0,0,0,.29-0.24l0.17,0.16a2.26,2.26,0,0,1-.57.71,1.08,1.08,0,0,1-.67.22,0.93,0.93,0,0,1-.69-0.25A1.22,1.22,0,0,1,904,112.21Zm0-.48v-2.07a3.46,3.46,0,0,0-1,1,1.38,1.38,0,0,0-.21.72,0.84,0.84,0,0,0,.18.54,0.46,0.46,0,0,0,.39.18A1,1,0,0,0,904,111.72Z" transform="translate(-823.23 -3)"/><path class="cls-5" d="M908.93,106.94v1.4a4.39,4.39,0,0,1,.9-1.27,1.2,1.2,0,0,1,.74-0.31,0.6,0.6,0,0,1,.49.23,1,1,0,0,1,.18.64,1.14,1.14,0,0,1-.18.69,0.52,0.52,0,0,1-.43.25,0.68,0.68,0,0,1-.51-0.22l-0.25-.25a0.21,0.21,0,0,0-.13,0,0.42,0.42,0,0,0-.3.15,1.42,1.42,0,0,0-.34.64,5.33,5.33,0,0,0-.18,1.41V112a1.8,1.8,0,0,0,0,.48,0.51,0.51,0,0,0,.19.26,1,1,0,0,0,.44.1v0.24h-2.78v-0.24a0.57,0.57,0,0,0,.45-0.22,2.43,2.43,0,0,0,.12-1v-3.41a3.06,3.06,0,0,0,0-.67,0.53,0.53,0,0,0-.16-0.27,0.74,0.74,0,0,0-.37-0.12v-0.24h2.1Z" transform="translate(-823.23 -3)"/><path class="cls-5" d="M913.81,106.94v4.89a1.72,1.72,0,0,0,.13.84,0.62,0.62,0,0,0,.49.21v0.24h-2.78v-0.24a0.62,0.62,0,0,0,.51-0.24,1.73,1.73,0,0,0,.11-0.81v-3.61a1.73,1.73,0,0,0-.13-0.84,0.62,0.62,0,0,0-.49-0.21v-0.24h2.16ZM913,104a0.76,0.76,0,0,1,.6.3,1.1,1.1,0,0,1,.25.72,1.08,1.08,0,0,1-.25.72,0.76,0.76,0,0,1-.6.3,0.75,0.75,0,0,1-.6-0.3,1.18,1.18,0,0,1,0-1.44A0.75,0.75,0,0,1,913,104Z" transform="translate(-823.23 -3)"/><path class="cls-5" d="M917.77,112.21a2.55,2.55,0,0,1-1.69,1,0.92,0.92,0,0,1-.73-0.35,1.3,1.3,0,0,1-.29-0.87,1.85,1.85,0,0,1,.51-1.27,9.32,9.32,0,0,1,2.21-1.5v-0.62a3.6,3.6,0,0,0-.06-0.88,0.69,0.69,0,0,0-.24-0.32,0.64,0.64,0,0,0-.4-0.14,0.89,0.89,0,0,0-.59.19,0.35,0.35,0,0,0-.14.28,0.62,0.62,0,0,0,.15.34,0.93,0.93,0,0,1,.21.55,0.8,0.8,0,0,1-.2.55,0.67,0.67,0,0,1-.53.23,0.76,0.76,0,0,1-.58-0.25,0.84,0.84,0,0,1-.23-0.59,1.52,1.52,0,0,1,.31-0.91,2,2,0,0,1,.87-0.66,3,3,0,0,1,1.17-.23,1.7,1.7,0,0,1,1.16.37,1.72,1.72,0,0,1,.55.81,6.26,6.26,0,0,1,.08,1.27v2.4a2.94,2.94,0,0,0,0,.53,0.33,0.33,0,0,0,.08.16,0.18,0.18,0,0,0,.13.05,0.4,0.4,0,0,0,.29-0.24l0.17,0.16a2.26,2.26,0,0,1-.57.71,1.08,1.08,0,0,1-.67.22,0.93,0.93,0,0,1-.69-0.25A1.22,1.22,0,0,1,917.77,112.21Zm0-.48v-2.07a3.46,3.46,0,0,0-1,1,1.38,1.38,0,0,0-.21.72,0.84,0.84,0,0,0,.18.54,0.46,0.46,0,0,0,.39.18A1,1,0,0,0,917.77,111.72Z" transform="translate(-823.23 -3)"/><path class="cls-7" d="M845.8,84.19v0.48a3.72,3.72,0,0,0-1.68.6,5.38,5.38,0,0,0-1.44,2l-7.27,15h-0.57L827,87a8,8,0,0,0-.85-1.43,2.68,2.68,0,0,0-.95-0.63,5.06,5.06,0,0,0-1.51-.29V84.19h8.51v0.48a4.42,4.42,0,0,0-1.87.42,0.9,0.9,0,0,0-.43.77,5.2,5.2,0,0,0,.71,2l5.3,10.34L840.86,88a6.08,6.08,0,0,0,.72-2.09,1,1,0,0,0-.45-0.72,3.25,3.25,0,0,0-1.51-.49l-0.26,0V84.19h6.42Z" transform="translate(-823.23 -3)"/><path class="cls-7" d="M850.13,89.56v9.57a3.76,3.76,0,0,0,.19,1.49,1.22,1.22,0,0,0,.57.55,3.52,3.52,0,0,0,1.38.18v0.47h-6.84v-0.47a3.69,3.69,0,0,0,1.38-.17,1.24,1.24,0,0,0,.56-0.56,3.61,3.61,0,0,0,.21-1.5V94.54a13.82,13.82,0,0,0-.14-2.51,1,1,0,0,0-.34-0.58,1.08,1.08,0,0,0-.63-0.16,3.57,3.57,0,0,0-1,.19L845.21,91l4.24-1.46h0.68Zm-1.28-6.23a1.65,1.65,0,0,1,1.1.38,1.18,1.18,0,0,1,.45.93,1.19,1.19,0,0,1-.45.94,1.63,1.63,0,0,1-1.1.39,1.66,1.66,0,0,1-1.11-.39,1.18,1.18,0,0,1,0-1.87A1.67,1.67,0,0,1,848.86,83.33Z" transform="translate(-823.23 -3)"/><path class="cls-7" d="M853.3,89.91h6.62v0.48h-0.43a1.46,1.46,0,0,0-.91.25,0.8,0.8,0,0,0-.31.66,2.43,2.43,0,0,0,.32,1.08L861.86,99l3.29-6.83A2.85,2.85,0,0,0,865.5,91a0.39,0.39,0,0,0-.12-0.3,0.85,0.85,0,0,0-.43-0.27,4.92,4.92,0,0,0-1.06-.07V89.91h4.6v0.48a2.26,2.26,0,0,0-1.11.27,3.32,3.32,0,0,0-1,1.3l-5,10.22h-0.63l-5-10.05a3.75,3.75,0,0,0-.65-1,2.54,2.54,0,0,0-.78-0.51,4.41,4.41,0,0,0-1-.22V89.91Z" transform="translate(-823.23 -3)"/><path class="cls-7" d="M877.73,100.11a23.61,23.61,0,0,1-2.72,1.64,4.8,4.8,0,0,1-1.77.33,3.47,3.47,0,0,1-2.41-.85A2.84,2.84,0,0,1,869.9,99a2.51,2.51,0,0,1,.46-1.51,5.85,5.85,0,0,1,2.19-1.67,37.54,37.54,0,0,1,5.19-1.9V93.46a3.43,3.43,0,0,0-.67-2.44,2.64,2.64,0,0,0-1.94-.66,2.44,2.44,0,0,0-1.54.44,1.26,1.26,0,0,0-.58,1l0,0.75a1.18,1.18,0,0,1-.36.92,1.36,1.36,0,0,1-.95.33,1.31,1.31,0,0,1-.93-0.34,1.2,1.2,0,0,1-.36-0.92,2.58,2.58,0,0,1,1.35-2.05,6.61,6.61,0,0,1,3.8-.94,7.61,7.61,0,0,1,3.07.53A2.65,2.65,0,0,1,880,91.36a6.09,6.09,0,0,1,.28,2.29v4a15.71,15.71,0,0,0,.08,2.09,0.82,0.82,0,0,0,.25.51,0.67,0.67,0,0,0,.41.13,1,1,0,0,0,.43-0.09,9.38,9.38,0,0,0,1.25-.95v0.73q-1.72,2-3.29,2a1.63,1.63,0,0,1-1.2-.44A2.12,2.12,0,0,1,877.73,100.11Zm0-.84V94.73q-2.32.78-3,1.11A5.08,5.08,0,0,0,873,97a2.08,2.08,0,0,0-.52,1.37,2,2,0,0,0,.66,1.55,2.16,2.16,0,0,0,1.52.62A6.05,6.05,0,0,0,877.73,99.26Z" transform="translate(-823.23 -3)"/><path class="cls-7" d="M892.83,89.56v4.06h-0.51a5,5,0,0,0-1.5-2.6,3.76,3.76,0,0,0-2.33-.69,2.89,2.89,0,0,0-1.74.48,1.34,1.34,0,0,0-.66,1.07,1.75,1.75,0,0,0,.49,1.25,5.54,5.54,0,0,0,1.94,1.13l2.24,0.92q3.12,1.29,3.12,3.39a3,3,0,0,1-1.45,2.62,5.62,5.62,0,0,1-3.25,1,13,13,0,0,1-3-.39,3.53,3.53,0,0,0-.83-0.13,0.62,0.62,0,0,0-.55.34h-0.51V97.76h0.51a4.64,4.64,0,0,0,1.64,2.74,4.38,4.38,0,0,0,2.72.92,2.71,2.71,0,0,0,1.73-.53,1.57,1.57,0,0,0,.67-1.27,1.88,1.88,0,0,0-.75-1.51,13.57,13.57,0,0,0-3-1.55A9,9,0,0,1,885,94.88a2.64,2.64,0,0,1-.69-1.87,3.07,3.07,0,0,1,1.19-2.46,4.67,4.67,0,0,1,3.08-1,8.46,8.46,0,0,1,2,.3,5.54,5.54,0,0,0,1,.2A0.69,0.69,0,0,0,892,90a1.27,1.27,0,0,0,.32-0.4h0.51Z" transform="translate(-823.23 -3)"/><path class="cls-7" d="M908.32,89.91v7.22a15.34,15.34,0,0,0,.12,2.53,1.08,1.08,0,0,0,.37.64,1,1,0,0,0,.59.18,3.15,3.15,0,0,0,1.08-.22l0.22,0.46-4.21,1.47h-0.69V99.67a12.43,12.43,0,0,1-2.77,2.09,4.85,4.85,0,0,1-2,.43,3.61,3.61,0,0,1-2.05-.58,3,3,0,0,1-1.21-1.49,7.69,7.69,0,0,1-.34-2.57V92.23a2.27,2.27,0,0,0-.22-1.17,1.37,1.37,0,0,0-.64-0.5,4.38,4.38,0,0,0-1.53-.16V89.91H900v8a2.18,2.18,0,0,0,2.34,2.71,3.94,3.94,0,0,0,1.5-.35,8,8,0,0,0,2-1.34V92.15a1.71,1.71,0,0,0-.44-1.37,3.23,3.23,0,0,0-1.82-.38V89.91h4.8Z" transform="translate(-823.23 -3)"/><path class="cls-7" d="M915.83,89.56v2.68q1.77-2.68,3.63-2.68a2.19,2.19,0,0,1,1.4.44,1.27,1.27,0,0,1,.55,1,1.1,1.1,0,0,1-.4.86,1.4,1.4,0,0,1-1,.35,2.23,2.23,0,0,1-1.21-.45,2.14,2.14,0,0,0-1-.45,1,1,0,0,0-.6.26,6.37,6.37,0,0,0-1.43,1.76V99a3.06,3.06,0,0,0,.29,1.5,1.5,1.5,0,0,0,.71.58,3.59,3.59,0,0,0,1.46.23v0.47h-7.21v-0.47a3.45,3.45,0,0,0,1.6-.29,1.13,1.13,0,0,0,.54-0.66,5.65,5.65,0,0,0,.08-1.26V94.53a16.28,16.28,0,0,0-.1-2.48,0.94,0.94,0,0,0-.37-0.58,1.16,1.16,0,0,0-.67-0.18,3.52,3.52,0,0,0-1.08.19L910.93,91l4.26-1.46h0.65Z" transform="translate(-823.23 -3)"/><path class="cls-8" d="M834.82,121.46v0.39a22.38,22.38,0,0,1-2,1.83,8.65,8.65,0,0,1-1.81,1.11,4.24,4.24,0,0,1-1.71.39,2.7,2.7,0,0,1-1.22-.25,1.72,1.72,0,0,1-.77-0.74A2.43,2.43,0,0,1,827,123a3.69,3.69,0,0,1,.19-1.12,5.83,5.83,0,0,1,.54-1.19,10.46,10.46,0,0,1,.87-1.24,18,18,0,0,1,1.21-1.34,13.35,13.35,0,0,1,1.43-1.26,9.65,9.65,0,0,1,1.28-.83,6.07,6.07,0,0,1,1.06-.45,2.93,2.93,0,0,1,.81-0.15,1,1,0,0,1,.56.14,0.92,0.92,0,0,1,.36.42,1.49,1.49,0,0,1,.13.63,2.9,2.9,0,0,1-.51,1.49,9,9,0,0,1-1.26,1.58,10.86,10.86,0,0,1-1.45,1.25,2.19,2.19,0,0,1-1,.48,0.58,0.58,0,0,1-.38-0.15,0.42,0.42,0,0,1-.17-0.33,1.4,1.4,0,0,1,.4-0.82,7.08,7.08,0,0,1,.87-0.88,1.9,1.9,0,0,1,.56-0.4s0,0,0,0a0.48,0.48,0,0,1-.07.18,0.58,0.58,0,0,0-.07.16,0,0,0,0,0,0,0,2.1,2.1,0,0,0,.65-0.54,8.6,8.6,0,0,0,1-1.19,2.06,2.06,0,0,0,.44-1.06,0.38,0.38,0,0,0-.08-0.26,0.32,0.32,0,0,0-.25-0.09,2.91,2.91,0,0,0-1.4.67,13.56,13.56,0,0,0-1.92,1.71,12.2,12.2,0,0,0-1.64,2.15,4,4,0,0,0-.66,1.95,1.82,1.82,0,0,0,.16.81,1.15,1.15,0,0,0,.47.5,1.5,1.5,0,0,0,.75.18,4.58,4.58,0,0,0,2.17-.67A15,15,0,0,0,834.82,121.46Z" transform="translate(-823.23 -3)"/><path class="cls-8" d="M839,121.47v0.4a3.51,3.51,0,0,1-.7.47,1.7,1.7,0,0,1-.76.09,2.31,2.31,0,0,1-1.51.91,1.12,1.12,0,0,1-.67-0.22,1.54,1.54,0,0,1-.48-0.6,1.94,1.94,0,0,1-.18-0.85,1.65,1.65,0,0,1,.28-0.84,3.82,3.82,0,0,1,.72-0.86,4.08,4.08,0,0,1,1-.65,2.17,2.17,0,0,1,.94-0.25,1.15,1.15,0,0,1,.49.08,0.27,0.27,0,0,1,.18.24,0.43,0.43,0,0,1-.15.27,0.58,0.58,0,0,1,.34.16,0.64,0.64,0,0,1,.09.4,2.31,2.31,0,0,1-.15.72,3.43,3.43,0,0,1-.4.81l0.12,0.11h0.1a0.51,0.51,0,0,0,.22-0.05l0.19-.11Zm-1.36-1.56q-0.55.3-.94,0.54a4.47,4.47,0,0,0-.66.49,1.29,1.29,0,0,0-.36.49c-0.11.44-.16,0.68-0.16,0.72q0,0.39.61,0.39a2.17,2.17,0,0,0,.95-0.44,1.43,1.43,0,0,1-.11-0.53,1.88,1.88,0,0,1,.17-0.76A6.07,6.07,0,0,1,837.64,119.91Z" transform="translate(-823.23 -3)"/><path class="cls-8" d="M843.42,120.41a3.43,3.43,0,0,0-1.16,1.62,0.21,0.21,0,0,0,.23.25,1.05,1.05,0,0,0,.5-0.18q0.31-.18,1-0.64v0.41q-0.93.83-1.44,1.2a1.53,1.53,0,0,1-.82.37,0.53,0.53,0,0,1-.54-0.64,1.1,1.1,0,0,1,.07-0.37,2.35,2.35,0,0,1,.18-0.38l0.35-.57,0.55-.84a4.13,4.13,0,0,0-.94.68,7,7,0,0,0-.63.61l-0.55.64a5.2,5.2,0,0,1-.43.47,0.41,0.41,0,0,1-.27.12,0.53,0.53,0,0,1-.39-0.4,2.24,2.24,0,0,1-.18-0.92,1.28,1.28,0,0,1,.08-0.51,3.38,3.38,0,0,1,.33-0.52,5.94,5.94,0,0,1,.78-0.92,1,1,0,0,1,.63-0.29,0.74,0.74,0,0,1,.34.07,0.21,0.21,0,0,1,.13.2,0.24,0.24,0,0,1,0,.12l-0.09.12-0.21.21a3.4,3.4,0,0,0-1,1.34c0,0.12,0,.17.13,0.17a0.69,0.69,0,0,0,.31-0.23l0.59-.6a10.32,10.32,0,0,1,.85-0.77,9.11,9.11,0,0,1,1.12-.78,1.18,1.18,0,0,1,.58-0.22,0.33,0.33,0,0,1,.21.26,1.43,1.43,0,0,1,.1.53A0.74,0.74,0,0,1,843.42,120.41Z" transform="translate(-823.23 -3)"/><path class="cls-8" d="M843.88,121.64V121.5q1.7-1.61,2.34-2.26a0.69,0.69,0,0,1,1-.66l0,0.11a0.61,0.61,0,0,0,0,.2,1.74,1.74,0,0,0,.1.42q0.1,0.3.15,0.51a1.9,1.9,0,0,1,.05.47,1.53,1.53,0,0,1-.2.75,2.58,2.58,0,0,1-.57.69,6.19,6.19,0,0,1-1,.67l0.38,0a1.61,1.61,0,0,0,.58-0.12,3.77,3.77,0,0,0,.64-0.33q0.33-.2.76-0.53v0.4a9.72,9.72,0,0,1-1.51,1.12,2.4,2.4,0,0,1-1.15.38,1.68,1.68,0,0,1-1.15-.47,1.26,1.26,0,0,1-.39-0.54A2.61,2.61,0,0,1,843.88,121.64Zm2.46-.91-0.12-.87q-0.41.41-1.74,1.59a1.18,1.18,0,0,1,.54.21,3.35,3.35,0,0,1,.41.5,1.59,1.59,0,0,0,.69-0.45,1.19,1.19,0,0,0,.24-0.78s0-.08,0-0.11S846.34,120.77,846.34,120.74Z" transform="translate(-823.23 -3)"/><path class="cls-8" d="M850.42,118.41h0.28a3.34,3.34,0,0,1,.63-0.8,1,1,0,0,1,.65-0.23c0.24,0,.36,0,0.36.15a1.18,1.18,0,0,1-.28.39,5.21,5.21,0,0,0-.43.53l0.4,0,0.27,0a9.31,9.31,0,0,1-.94,1.29l-0.31,0-0.25,0-0.31,0q-0.36.51-.6,0.92a4.87,4.87,0,0,0-.37.74,1.8,1.8,0,0,0-.13.64,0.34,0.34,0,0,0,.36.41,1.41,1.41,0,0,0,.65-0.24q0.41-.24,1.08-0.74v0.4q-1.78,1.74-2.63,1.74a0.6,0.6,0,0,1-.48-0.21,0.78,0.78,0,0,1-.18-0.53,1.67,1.67,0,0,1,.1-0.52q0.1-.3.37-0.91l-0.17.14-0.15.12-0.15.12-0.16.13v-0.41a9.48,9.48,0,0,0,1.67-1.83h-0.39a2.56,2.56,0,0,0-.58,0l-0.15,0-0.1,0s0,0,0,0a1.23,1.23,0,0,1,.27-0.59,2.2,2.2,0,0,1,.41-0.49,1.06,1.06,0,0,1,.47-0.22A4.17,4.17,0,0,1,850.42,118.41Z" transform="translate(-823.23 -3)"/><path class="cls-8" d="M851.42,121.94v-0.39a5.88,5.88,0,0,0,.54-0.65,0.75,0.75,0,0,1-.31-0.16,0.38,0.38,0,0,1-.1-0.28,1.11,1.11,0,0,1,.2-0.54,3.1,3.1,0,0,1,.49-0.61,1.53,1.53,0,0,1,.53-0.37,0.44,0.44,0,0,1,.18,0,0.11,0.11,0,0,1,.13.11,1.07,1.07,0,0,1-.2.41q1.36-.19,1.71-0.19a0.53,0.53,0,0,1,.19,0,0.42,0.42,0,0,1,.18.25,1.12,1.12,0,0,1,.07.39,0.43,0.43,0,0,1-.12.27,5.62,5.62,0,0,1-.42.42,3.53,3.53,0,0,0-.59.73,1.35,1.35,0,0,0-.24.6q0,0.28.38,0.28a3.13,3.13,0,0,0,1.4-.74v0.4q-0.55.52-.9,0.81a4.79,4.79,0,0,1-.66.47,1.11,1.11,0,0,1-.54.17,0.57,0.57,0,0,1-.46-0.23,1,1,0,0,1-.18-0.66,1.45,1.45,0,0,1,.15-0.58,3.86,3.86,0,0,1,.42-0.71,8.63,8.63,0,0,1,.63-0.76l-0.41.07-0.49.08-0.4.07A4.4,4.4,0,0,1,851.42,121.94Z" transform="translate(-823.23 -3)"/><path class="cls-8" d="M858.52,121.08q-1,1.14-1.45,1.62a1.37,1.37,0,0,1-.81.48,0.68,0.68,0,0,1-.46-0.19,1.21,1.21,0,0,1-.33-0.5,2,2,0,0,1-.12-0.68,1.7,1.7,0,0,1,0-.43,1.61,1.61,0,0,1,.19-0.42,3.88,3.88,0,0,1,.37-0.49c0.15-.18.34-0.38,0.56-0.6l0.33-.35a0.76,0.76,0,0,1,.26-0.19,1.26,1.26,0,0,1,.42,0,1.59,1.59,0,0,1,.4,0,0.23,0.23,0,0,1,.19.1,0.91,0.91,0,0,1-.19.38,4.55,4.55,0,0,1-.63.68,8.38,8.38,0,0,1-1,.78,1.75,1.75,0,0,0-.13.53,0.21,0.21,0,0,0,.22.25,0.6,0.6,0,0,0,.26-0.12q0.18-.12.62-0.47l0.79-.61a4.38,4.38,0,0,0,.6-0.6,8.13,8.13,0,0,1,.55-0.6q0.49-.46.67-0.6a0.56,0.56,0,0,1,.34-0.14,0.23,0.23,0,0,1,.21.09,0.76,0.76,0,0,1,.06.36,0.64,0.64,0,0,1,0,.2,0.93,0.93,0,0,1-.11.2l-0.33.45-0.59.77a3,3,0,0,0-.32.52,1.09,1.09,0,0,0-.14.42,0.26,0.26,0,0,0,.27.31,1.1,1.1,0,0,0,.52-0.17q0.3-.17.91-0.6v0.4l-1.14.93a4.86,4.86,0,0,1-.64.44,1.07,1.07,0,0,1-.51.15,0.51,0.51,0,0,1-.55-0.59,1.66,1.66,0,0,1,.16-0.61Q858.15,121.8,858.52,121.08Z" transform="translate(-823.23 -3)"/><path class="cls-8" d="M863.65,121.71l-1.17.89a2.69,2.69,0,0,1-1.12.66,0.79,0.79,0,0,1-.54-0.53,2,2,0,0,1-.28-0.93,1.29,1.29,0,0,1,.12-0.57,4,4,0,0,1,.4-0.61,8.48,8.48,0,0,1,.77-0.85,5.46,5.46,0,0,1,.65-0.54,0.93,0.93,0,0,1,.4-0.19,0.49,0.49,0,0,1,.35.17,0.48,0.48,0,0,1,.17.34,0.77,0.77,0,0,1-.18.36,5.28,5.28,0,0,1-.57.63,12.29,12.29,0,0,1-1.09.92l-0.12.33a0.35,0.35,0,0,0-.05.17,0.15,0.15,0,0,0,.18.16,2.59,2.59,0,0,0,.87-0.42,10.79,10.79,0,0,0,1.48-1.13q0.31-.28.51-0.49l0.37-.4a3,3,0,0,1,.27-0.28,0.35,0.35,0,0,1,.19-0.1,0.25,0.25,0,0,1,.26.12,0.74,0.74,0,0,1-.07.82q-0.16.24-.59,0.82t-0.87,1.2q-0.43.62-.88,1.39l0.4-.36,0.81-.7L865,122l0.69-.52v0.4q-0.89.86-1.61,1.63T863,124.72l-0.46.54-0.32.39-0.24.28a0.26,0.26,0,0,1-.15.1,0.32,0.32,0,0,1-.25-0.25,1.1,1.1,0,0,1-.11-0.44,0.61,0.61,0,0,1,.07-0.3A32,32,0,0,1,863.65,121.71Z" transform="translate(-823.23 -3)"/><path class="cls-8" d="M866.72,121.69v0.15a0.75,0.75,0,0,0,.19.54,0.67,0.67,0,0,0,.5.2,1.82,1.82,0,0,0,.67-0.14,3.76,3.76,0,0,0,.69-0.36c0.23-.15.51-0.35,0.84-0.6v0.36a7.87,7.87,0,0,1-1.4,1.23,2.38,2.38,0,0,1-1.32.43,1.15,1.15,0,0,1-.93-0.41,1.69,1.69,0,0,1-.34-1.12,2.05,2.05,0,0,1,.32-1.13,4.45,4.45,0,0,1,1.05-1.07,4.12,4.12,0,0,1,1-.58,2.42,2.42,0,0,1,.88-0.2,0.84,0.84,0,0,1,.49.13,0.44,0.44,0,0,1,.18.38,1.16,1.16,0,0,1-.31.74,3.46,3.46,0,0,1-.94.73A10.13,10.13,0,0,1,866.72,121.69Zm0.07-.38a3.9,3.9,0,0,0,1-.52,2.76,2.76,0,0,0,.62-0.59,0.88,0.88,0,0,0,.2-0.41,0.12,0.12,0,0,0-.14-0.14,1,1,0,0,0-.39.14,3.22,3.22,0,0,0-.54.36,2.72,2.72,0,0,0-.49.52A1.57,1.57,0,0,0,866.79,121.31Z" transform="translate(-823.23 -3)"/><path class="cls-8" d="M874,120.41a3.43,3.43,0,0,0-1.16,1.62,0.21,0.21,0,0,0,.23.25,1.05,1.05,0,0,0,.5-0.18q0.31-.18,1-0.64v0.41q-0.93.83-1.44,1.2a1.53,1.53,0,0,1-.82.37,0.53,0.53,0,0,1-.54-0.64,1.1,1.1,0,0,1,.07-0.37A2.35,2.35,0,0,1,872,122l0.35-.57,0.55-.84a4.13,4.13,0,0,0-.94.68,7,7,0,0,0-.63.61l-0.55.64a5.2,5.2,0,0,1-.43.47,0.41,0.41,0,0,1-.27.12,0.53,0.53,0,0,1-.39-0.4,2.24,2.24,0,0,1-.18-0.92,1.28,1.28,0,0,1,.08-0.51,3.38,3.38,0,0,1,.33-0.52,5.94,5.94,0,0,1,.78-0.92,1,1,0,0,1,.63-0.29,0.74,0.74,0,0,1,.34.07,0.21,0.21,0,0,1,.13.2,0.24,0.24,0,0,1,0,.12l-0.09.12-0.21.21a3.4,3.4,0,0,0-1,1.34c0,0.12,0,.17.13,0.17a0.69,0.69,0,0,0,.31-0.23l0.59-.6a10.32,10.32,0,0,1,.85-0.77,9.11,9.11,0,0,1,1.12-.78,1.18,1.18,0,0,1,.58-0.22,0.33,0.33,0,0,1,.21.26,1.43,1.43,0,0,1,.1.53A0.74,0.74,0,0,1,874,120.41Z" transform="translate(-823.23 -3)"/><path class="cls-8" d="M877.54,121.49q-0.58.59-1,1a9,9,0,0,1-.74.62,0.94,0.94,0,0,1-.39.2,0.57,0.57,0,0,1-.39-0.25,2.2,2.2,0,0,1-.37-0.63,2.12,2.12,0,0,1-.15-0.78,1.64,1.64,0,0,1,.62-1.16,5.65,5.65,0,0,1,1.41-1,3.1,3.1,0,0,1,1.19-.38,0.86,0.86,0,0,1,.63.37q0.51-1,1-1.69a9.18,9.18,0,0,1,.77-1.1,0.9,0.9,0,0,1,.44-0.36,0.36,0.36,0,0,1,.27.13,0.41,0.41,0,0,1,.12.29,2.46,2.46,0,0,1-.5,1.06l-1,1.46a12.28,12.28,0,0,0-.84,1.4,2.85,2.85,0,0,0-.35,1.28q0,0.53.38,0.53a1.13,1.13,0,0,0,.58-0.23,11.83,11.83,0,0,0,1-.78v0.43q-1.42,1.65-2.19,1.65a0.48,0.48,0,0,1-.44-0.21,1.19,1.19,0,0,1-.14-0.63A5.26,5.26,0,0,1,877.54,121.49ZM878,120a9,9,0,0,0-1.38.57,5.81,5.81,0,0,0-1,.54,1,1,0,0,0-.26.44,1.69,1.69,0,0,0-.11.49,0.22,0.22,0,0,0,.23.23,0.42,0.42,0,0,0,.21-0.07,4,4,0,0,0,.38-0.28l0.34-.27,0.5-.38q0.39-.29.56-0.46a1.75,1.75,0,0,0,.3-0.37A1.44,1.44,0,0,0,878,120Z" transform="translate(-823.23 -3)"/><path class="cls-8" d="M884.38,121.47v0.4a3.51,3.51,0,0,1-.7.47,1.7,1.7,0,0,1-.76.09,2.31,2.31,0,0,1-1.51.91,1.12,1.12,0,0,1-.67-0.22,1.54,1.54,0,0,1-.48-0.6,1.94,1.94,0,0,1-.18-0.85,1.65,1.65,0,0,1,.28-0.84,3.82,3.82,0,0,1,.72-0.86,4.08,4.08,0,0,1,1-.65,2.17,2.17,0,0,1,.94-0.25,1.15,1.15,0,0,1,.49.08,0.27,0.27,0,0,1,.18.24,0.43,0.43,0,0,1-.15.27,0.58,0.58,0,0,1,.34.16,0.64,0.64,0,0,1,.09.4,2.31,2.31,0,0,1-.15.72,3.43,3.43,0,0,1-.4.81l0.12,0.11h0.1a0.51,0.51,0,0,0,.22-0.05l0.19-.11ZM883,119.91q-0.55.3-.94,0.54a4.47,4.47,0,0,0-.66.49,1.29,1.29,0,0,0-.36.49c-0.11.44-.16,0.68-0.16,0.72q0,0.39.61,0.39a2.17,2.17,0,0,0,.95-0.44,1.43,1.43,0,0,1-.11-0.53,1.88,1.88,0,0,1,.17-0.76A6.07,6.07,0,0,1,883,119.91Z" transform="translate(-823.23 -3)"/><path class="cls-8" d="M889.56,118.14l-1.42.67a1.41,1.41,0,0,1-.44.15,0.37,0.37,0,0,1-.3-0.12,0.56,0.56,0,0,1-.1-0.36,1.93,1.93,0,0,1,.13-0.64,1.47,1.47,0,0,1,.3-0.54,3.48,3.48,0,0,1,.83-0.49,15,15,0,0,1,1.58-.62,16.23,16.23,0,0,1,1.92-.52,9.12,9.12,0,0,1,1.83-.21,1.72,1.72,0,0,1,.86.17,1,1,0,0,1,.28.88,1.66,1.66,0,0,1-.29.86,6.12,6.12,0,0,1-.7.92q-0.41.44-1.52,1.58l0.87-.11,1-.1q0.88-1.14,1.42-1.82t0.92-1.12q0.38-.45.45-0.51a0.23,0.23,0,0,1,.22-0.1,0.24,0.24,0,0,1,.09.25,1.19,1.19,0,0,1-.06.4,1.12,1.12,0,0,1-.17.3l-0.12.16q-0.17.25-.49,0.67l-0.63.81q-0.31.4-.7,1a8.54,8.54,0,0,1,1.46.17l-1.19,1.45a11.38,11.38,0,0,0-1.3-.06l-0.31.56a4.19,4.19,0,0,0-.18.38,0.86,0.86,0,0,0-.08.33,0.72,0.72,0,0,0,.06.25,1,1,0,0,1,.06.18,0.35,0.35,0,0,1-.19.25,2.17,2.17,0,0,1-.45.23,1.22,1.22,0,0,1-.4.1c-0.16,0-.24-0.11-0.24-0.33a4,4,0,0,1,.78-1.91q-1,.08-2.39.28-0.39.46-.7,0.88l-0.52.7a3.27,3.27,0,0,1-.3.38,0.29,0.29,0,0,1-.21.09,0.42,0.42,0,0,1-.32-0.15,0.28,0.28,0,0,1-.08-0.12,0.5,0.5,0,0,1,0-.13V123a0.45,0.45,0,0,1,.09-0.21q0.09-.14.41-0.54l0.47-.61-0.44,0a1.19,1.19,0,0,1-.56-0.11,0.33,0.33,0,0,1-.21-0.28,0.89,0.89,0,0,1,.11-0.41,1.15,1.15,0,0,1,.29-0.36,0.56,0.56,0,0,1,.36-0.14,0.78,0.78,0,0,1,.28.07l1.7-.38q1.42-1.39,2.12-2.19a2.71,2.71,0,0,0,.7-1,0.3,0.3,0,0,0-.08-0.22,0.52,0.52,0,0,0-.22-0.13,1,1,0,0,0-.33,0,3.49,3.49,0,0,0-.69.11q-0.47.11-1.12,0.31t-1.63.58a2,2,0,0,0-.72.34,0.11,0.11,0,0,0,.1.11l0.25,0a0.19,0.19,0,0,1,.15,0,0.13,0.13,0,0,1-.08.07Z" transform="translate(-823.23 -3)"/><path class="cls-8" d="M901.1,121.47v0.4a3.51,3.51,0,0,1-.7.47,1.7,1.7,0,0,1-.76.09,2.31,2.31,0,0,1-1.51.91,1.12,1.12,0,0,1-.67-0.22,1.54,1.54,0,0,1-.48-0.6,1.94,1.94,0,0,1-.18-0.85,1.65,1.65,0,0,1,.28-0.84,3.82,3.82,0,0,1,.72-0.86,4.08,4.08,0,0,1,1-.65,2.17,2.17,0,0,1,.94-0.25,1.15,1.15,0,0,1,.49.08,0.27,0.27,0,0,1,.18.24,0.43,0.43,0,0,1-.15.27,0.58,0.58,0,0,1,.34.16,0.64,0.64,0,0,1,.09.4,2.31,2.31,0,0,1-.15.72,3.43,3.43,0,0,1-.4.81l0.12,0.11h0.1a0.51,0.51,0,0,0,.22-0.05l0.19-.11Zm-1.36-1.56q-0.55.3-.94,0.54a4.47,4.47,0,0,0-.66.49,1.29,1.29,0,0,0-.36.49c-0.11.44-.16,0.68-0.16,0.72q0,0.39.61,0.39a2.17,2.17,0,0,0,.95-0.44,1.43,1.43,0,0,1-.11-0.53,1.88,1.88,0,0,1,.17-0.76A6.07,6.07,0,0,1,899.74,119.91Z" transform="translate(-823.23 -3)"/><path class="cls-8" d="M906.32,121.88l-2.19,1.62a11.51,11.51,0,0,1-1.68,2.14,2.15,2.15,0,0,1-1.13.71,0.19,0.19,0,0,1-.2-0.22,2,2,0,0,1,.48-1.09,4.53,4.53,0,0,1,.44-0.51,6.12,6.12,0,0,1,.47-0.43l0.58-.45,0.49-.37q0.66-1.21.95-1.85-0.62.59-1.08,1a5.22,5.22,0,0,1-.85.58,1.5,1.5,0,0,1-.69.2,0.78,0.78,0,0,1-.62-0.48,1.93,1.93,0,0,1-.28-1,1.17,1.17,0,0,1,.12-0.5,2.43,2.43,0,0,1,.38-0.56,4.75,4.75,0,0,1,.66-0.61,7.29,7.29,0,0,1,.94-0.61,3.62,3.62,0,0,1,1.59-.57q0.42,0,.42.28a1.16,1.16,0,0,1-.92.75,6,6,0,0,0-1.11.58,4,4,0,0,0-.89.77,1.2,1.2,0,0,0-.34.73,0.37,0.37,0,0,0,.09.25,0.29,0.29,0,0,0,.22.09,1,1,0,0,0,.53-0.19,10.12,10.12,0,0,0,.88-0.67,7.39,7.39,0,0,0,.7-0.71A10,10,0,0,1,905,120a0.82,0.82,0,0,1,.52-0.26,0.31,0.31,0,0,1,.21.07,0.27,0.27,0,0,1,.08.22,2.11,2.11,0,0,1-.24.79q-0.24.52-.87,1.7l1.59-1v0.38Z" transform="translate(-823.23 -3)"/><path class="cls-8" d="M907,120.42a8.08,8.08,0,0,1,1.94-1.21,4.12,4.12,0,0,1,1.46-.4,0.38,0.38,0,0,1,.26.1,0.78,0.78,0,0,1,.19.24,0.52,0.52,0,0,1,.07.2,0.17,0.17,0,0,1-.09.16,1.86,1.86,0,0,1-.32.12l0.12,0.24,0.11,0.24a0.42,0.42,0,0,1,0,.16,1.2,1.2,0,0,1-.32.53q-0.32.39-.45,0.57a0.77,0.77,0,0,0-.13.45,0.39,0.39,0,0,0,.45.44,2.94,2.94,0,0,0,1.44-.78v0.36q-1.67,1.66-2.38,1.66a0.42,0.42,0,0,1-.37-0.15,0.76,0.76,0,0,1-.11-0.45,3.86,3.86,0,0,1,.38-1.36q-1,1-1.43,1.36a1.33,1.33,0,0,1-.77.41,0.59,0.59,0,0,1-.36-0.23,2.11,2.11,0,0,1-.39-0.58,1.73,1.73,0,0,1-.17-0.74,1.55,1.55,0,0,1,.06-0.46,1.09,1.09,0,0,1,.23-0.38A5.49,5.49,0,0,1,907,120.42Zm3.15-.65a14.75,14.75,0,0,0-2.44,1.2,1.33,1.33,0,0,0-.73,1,0.59,0.59,0,0,0,.07.31,0.22,0.22,0,0,0,.2.12,0.77,0.77,0,0,0,.26-0.08,5.08,5.08,0,0,0,1.26-1Q909.4,120.78,910.2,119.77Z" transform="translate(-823.23 -3)"/><path class="cls-8" d="M911.68,121.94v-0.39a5.88,5.88,0,0,0,.54-0.65,0.75,0.75,0,0,1-.31-0.16,0.38,0.38,0,0,1-.1-0.28,1.11,1.11,0,0,1,.2-0.54,3.1,3.1,0,0,1,.49-0.61,1.53,1.53,0,0,1,.53-0.37,0.44,0.44,0,0,1,.18,0,0.11,0.11,0,0,1,.13.11,1.07,1.07,0,0,1-.2.41q1.36-.19,1.71-0.19a0.53,0.53,0,0,1,.19,0,0.42,0.42,0,0,1,.18.25,1.12,1.12,0,0,1,.07.39,0.43,0.43,0,0,1-.12.27,5.62,5.62,0,0,1-.42.42,3.53,3.53,0,0,0-.59.73,1.35,1.35,0,0,0-.24.6q0,0.28.38,0.28a3.13,3.13,0,0,0,1.4-.74v0.4q-0.55.52-.9,0.81a4.79,4.79,0,0,1-.66.47,1.11,1.11,0,0,1-.54.17,0.57,0.57,0,0,1-.46-0.23,1,1,0,0,1-.18-0.66,1.45,1.45,0,0,1,.15-0.58,3.86,3.86,0,0,1,.42-0.71,8.63,8.63,0,0,1,.63-0.76l-0.41.07-0.49.08-0.4.07A4.4,4.4,0,0,1,911.68,121.94Z" transform="translate(-823.23 -3)"/><path class="cls-8" d="M916.74,121.69v0.15a0.75,0.75,0,0,0,.19.54,0.67,0.67,0,0,0,.5.2,1.82,1.82,0,0,0,.67-0.14,3.76,3.76,0,0,0,.69-0.36c0.23-.15.51-0.35,0.84-0.6v0.36a7.87,7.87,0,0,1-1.4,1.23,2.38,2.38,0,0,1-1.32.43,1.15,1.15,0,0,1-.93-0.41,1.69,1.69,0,0,1-.34-1.12,2.05,2.05,0,0,1,.32-1.13,4.45,4.45,0,0,1,1.05-1.07,4.12,4.12,0,0,1,1-.58,2.42,2.42,0,0,1,.88-0.2,0.84,0.84,0,0,1,.49.13,0.44,0.44,0,0,1,.18.38,1.16,1.16,0,0,1-.31.74,3.46,3.46,0,0,1-.94.73A10.13,10.13,0,0,1,916.74,121.69Zm0.07-.38a3.9,3.9,0,0,0,1-.52,2.76,2.76,0,0,0,.62-0.59,0.88,0.88,0,0,0,.2-0.41,0.12,0.12,0,0,0-.14-0.14,1,1,0,0,0-.39.14,3.22,3.22,0,0,0-.54.36,2.72,2.72,0,0,0-.49.52A1.57,1.57,0,0,0,916.8,121.31Z" transform="translate(-823.23 -3)"/><path class="cls-8" d="M919.59,121.64V121.5q1.7-1.61,2.34-2.26a0.69,0.69,0,0,1,1-.66l0,0.11a0.61,0.61,0,0,0,0,.2,1.74,1.74,0,0,0,.1.42q0.1,0.3.15,0.51a1.9,1.9,0,0,1,.05.47,1.53,1.53,0,0,1-.2.75,2.58,2.58,0,0,1-.57.69,6.19,6.19,0,0,1-1,.67l0.38,0a1.61,1.61,0,0,0,.58-0.12,3.77,3.77,0,0,0,.64-0.33q0.33-.2.76-0.53v0.4a9.72,9.72,0,0,1-1.51,1.12,2.4,2.4,0,0,1-1.15.38,1.68,1.68,0,0,1-1.15-.47,1.26,1.26,0,0,1-.39-0.54A2.61,2.61,0,0,1,919.59,121.64Zm2.46-.91-0.12-.87q-0.41.41-1.74,1.59a1.18,1.18,0,0,1,.54.21,3.35,3.35,0,0,1,.41.5,1.59,1.59,0,0,0,.69-0.45,1.19,1.19,0,0,0,.24-0.78s0-.08,0-0.11S922.05,120.77,922,120.74Z" transform="translate(-823.23 -3)"/></svg>