<svg id="Layer_1" data-name="Layer 1" xmlns="http://www.w3.org/2000/svg" xmlns:xlink="http://www.w3.org/1999/xlink" viewBox="0 0 214.88 214.88"><defs><style>.cls-1{fill:url(#Degradado_sin_nombre);}.cls-2{fill:url(#Degradado_sin_nombre_2);}.cls-3{opacity:0.3;isolation:isolate;}.cls-4{fill:#fff;}</style><linearGradient id="Degradado_sin_nombre" y1="405.49" x2="214.88" y2="405.49" gradientTransform="matrix(1, 0, 0, -1, 0, 512.93)" gradientUnits="userSpaceOnUse"><stop offset="0" stop-color="#33b49d"/><stop offset="1" stop-color="#00a185"/></linearGradient><linearGradient id="Degradado_sin_nombre_2" x1="17.91" y1="405.49" x2="196.97" y2="405.49" gradientTransform="matrix(1, 0, 0, -1, 0, 512.93)" gradientUnits="userSpaceOnUse"><stop offset="0" stop-color="#00a185"/><stop offset="1" stop-color="#33b49d"/></linearGradient></defs><title>servicio-3</title><circle class="cls-1" cx="107.44" cy="107.44" r="107.44"/><path class="cls-2" d="M107.44,197A89.53,89.53,0,1,1,197,107.44,89.64,89.64,0,0,1,107.44,197Z" transform="translate(0 0)"/><path class="cls-3" d="M110.8,63.23L60.43,81.52l1.41,3.89,7.61-2.75v75.71h32.38V132.83h17.92v25.53h32.4V82.66l7.59,2.75,1.41-3.89Zm-4.59,58.63H80.87V109.62h25.34v12.24Zm0-21.6H80.87V88h25.34v12.24Zm34.52,21.6H115.39V109.62h25.34v12.24Zm0-21.6H115.39V88h25.34v12.24Z" transform="translate(0 0)"/><path class="cls-4" d="M107.44,59.87L57.08,78.16l1.41,3.89L66.1,79.3V155H98.48V129.48H116.4V155h32.4V79.3l7.59,2.75,1.41-3.89Zm-4.59,58.63H77.51V106.26h25.34V118.5Zm0-21.6H77.51V84.67h25.34V96.9Zm34.52,21.6H112V106.26h25.34V118.5Zm0-21.6H112V84.67h25.34V96.9Z" transform="translate(0 0)"/></svg>