<svg id="Layer_1" data-name="Layer 1" xmlns="http://www.w3.org/2000/svg" xmlns:xlink="http://www.w3.org/1999/xlink" viewBox="0 0 235.93 235.93"><defs><style>.cls-1{fill:url(#Degradado_sin_nombre);}.cls-2{fill:url(#Degradado_sin_nombre_2);}.cls-3{opacity:0.3;isolation:isolate;}.cls-4{fill:#fff;}</style><linearGradient id="Degradado_sin_nombre" y1="394.97" x2="235.93" y2="394.97" gradientTransform="matrix(1, 0, 0, -1, 0, 512.93)" gradientUnits="userSpaceOnUse"><stop offset="0" stop-color="#95a5a6"/><stop offset="1" stop-color="#7f8c8d"/></linearGradient><linearGradient id="Degradado_sin_nombre_2" x1="19.66" y1="394.96" x2="216.27" y2="394.96" gradientTransform="matrix(1, 0, 0, -1, 0, 512.93)" gradientUnits="userSpaceOnUse"><stop offset="0" stop-color="#7f8c8d"/><stop offset="1" stop-color="#95a5a6"/></linearGradient></defs><title>servicio-2</title><circle class="cls-1" cx="117.96" cy="117.96" r="117.96"/><path class="cls-2" d="M118,216.27a98.3,98.3,0,1,1,98.3-98.3A98.42,98.42,0,0,1,118,216.27Z" transform="translate(0 0)"/><path class="cls-3" d="M172.34,158.16h-6.58V105.39h9.11l-53.21-39-53.22,39h9.11v52.77H71a4.61,4.61,0,0,0-4.61,4.61v14.18H176.94V162.77A4.61,4.61,0,0,0,172.34,158.16Zm-11.18,0H149V105.39h12.11v52.77Zm-45.56-52.77h12.11v52.77H115.59V105.39ZM111,158.16H98.87V105.39H111v52.77Zm21.33-52.77h12.11v52.77H132.32V105.39ZM121.65,82.22a7,7,0,1,1-7.1,7A7.07,7.07,0,0,1,121.65,82.22Zm-39.5,23.17H94.26v52.77H82.15V105.39Z" transform="translate(0 0)"/><path class="cls-4" d="M168.65,154.47h-6.58V101.7h9.11L118,62.67l-53.22,39h9.11v52.77H67.28a4.61,4.61,0,0,0-4.61,4.61v14.18H173.26V159.08A4.61,4.61,0,0,0,168.65,154.47Zm-11.18,0H145.35V101.7h12.11v52.77ZM111.91,101.7H124v52.77H111.91V101.7Zm-4.61,52.77H95.19V101.7H107.3v52.77Zm21.33-52.77h12.11v52.77H128.63V101.7ZM118,78.53a7,7,0,1,1-7.1,7A7.07,7.07,0,0,1,118,78.53ZM78.46,101.7H90.58v52.77H78.46V101.7Z" transform="translate(0 0)"/></svg>