<svg id="Layer_1" data-name="Layer 1" xmlns="http://www.w3.org/2000/svg" xmlns:xlink="http://www.w3.org/1999/xlink" viewBox="0 0 264 264"><defs><style>.cls-1{fill:url(#Degradado_sin_nombre);}.cls-2{fill:url(#Degradado_sin_nombre_2);}.cls-3{opacity:0.3;isolation:isolate;}.cls-4{fill:#fff;}</style><linearGradient id="Degradado_sin_nombre" y1="380.93" x2="264" y2="380.93" gradientTransform="matrix(1, 0, 0, -1, 0, 512.93)" gradientUnits="userSpaceOnUse"><stop offset="0" stop-color="#ffca05"/><stop offset="1" stop-color="#faac18"/></linearGradient><linearGradient id="Degradado_sin_nombre_2" x1="22" y1="380.93" x2="242" y2="380.93" gradientTransform="matrix(1, 0, 0, -1, 0, 512.93)" gradientUnits="userSpaceOnUse"><stop offset="0" stop-color="#faac18"/><stop offset="1" stop-color="#ffca05"/></linearGradient></defs><title>servicio-1</title><circle class="cls-1" cx="132" cy="132" r="132"/><path class="cls-2" d="M132,242A110,110,0,1,1,242,132,110.13,110.13,0,0,1,132,242Z" transform="translate(0 0)"/><path class="cls-3" d="M173.85,109.84V85.41H160V98.66L136.13,79.31,74.25,129.38l3.17,3.89,12.36-10v69.66H119.9V150.54h32.46v42.39h30.12V123.28l12.36,10,3.17-3.89Zm-30.34,12.09H128.75V107.17h14.76v14.76Z" transform="translate(0 0)"/><path class="cls-4" d="M169.72,105.71V81.29H155.91V94.54L132,75.19,70.13,125.25l3.17,3.89,12.36-10v69.66h30.12V146.42h32.46v42.39h30.12V119.15l12.36,10,3.17-3.89ZM139.38,117.8H124.62V103h14.76V117.8Z" transform="translate(0 0)"/></svg>